<svg width="120" height="42" viewBox="0 0 120 42" fill="none" xmlns="http://www.w3.org/2000/svg">
<text x="55" y="25" font-family="Arial, sans-serif" font-size="16" font-weight="bold" fill="#051036">BTravel</text>
<rect width="41.958" height="41.958" rx="18" fill="#3554D1"/>
<g clip-path="url(#clip0_316_21121)">
<path d="M29.2333 18.3092C29.2333 13.766 25.537 10.0699 20.9939 10.0699C16.4507 10.0699 12.7546 13.766 12.7546 18.3092C12.7546 20.1943 14.0768 22.8682 16.6844 26.2566C17.4651 27.271 18.2403 28.1924 18.8883 28.9313V31.2388C18.8883 31.5973 19.1789 31.8881 19.5377 31.8881H22.4502C22.8089 31.8881 23.0996 31.5973 23.0996 31.2388V28.9313C23.7476 28.1924 24.5228 27.271 25.3035 26.2566C27.9111 22.8682 29.2333 20.1943 29.2333 18.3092ZM27.9346 18.3092C27.9346 20.1136 26.2555 22.8467 24.4169 25.272H23.6014C24.5862 22.313 25.0853 19.973 25.0853 18.3092C25.0853 16.1915 24.7067 14.1902 24.0193 12.6742C23.8883 12.3856 23.7481 12.1199 23.5998 11.8769C26.1393 12.9092 27.9346 15.4033 27.9346 18.3092ZM21.8009 30.5894H20.187V29.3346H21.8009V30.5894ZM22.1614 28.0359H19.8318C19.4524 27.6025 19.0303 27.1076 18.5917 26.5709H19.2888C19.2906 26.5709 19.2925 26.5711 19.2941 26.5711C19.296 26.5711 23.3962 26.5709 23.3962 26.5709C22.9721 27.0924 22.5544 27.5858 22.1614 28.0359ZM20.9939 11.3687C21.6341 11.3687 22.3056 12.04 22.8364 13.2105C23.4491 14.5617 23.7865 16.3724 23.7865 18.3092C23.7865 19.8857 23.2492 22.2879 22.231 25.272H19.7571C18.7385 22.2876 18.2012 19.8862 18.2012 18.3092C18.2012 16.3724 18.5387 14.5617 19.1515 13.2105C19.6823 12.04 20.3538 11.3687 20.9939 11.3687ZM14.0533 18.3092C14.0533 15.4033 15.8486 12.9092 18.3881 11.8769C18.2398 12.1199 18.0995 12.3856 17.9686 12.6742C17.2811 14.1902 16.9026 16.1915 16.9026 18.3092C16.9026 19.9735 17.4015 22.3132 18.3863 25.272H17.5668C15.2678 22.2511 14.0533 19.8461 14.0533 18.3092Z" fill="white"/>
</g>
<defs>
<clipPath id="clip0_316_21121">
<rect width="21.8182" height="21.8182" fill="white" transform="translate(10.0699 10.0699)"/>
</clipPath>
</defs>
</svg>