<svg width="143" height="50" viewBox="0 0 143 50" fill="none" xmlns="http://www.w3.org/2000/svg">
<text x="70" y="28" font-family="Arial, sans-serif" font-size="18" font-weight="bold" fill="white">BTravel</text>
<rect width="50" height="50" rx="22" fill="white"/>
<path d="M34.8363 21.8184C34.8363 16.4045 30.4316 12 25.0177 12C19.6037 12 15.1992 16.4045 15.1992 21.8184C15.1992 24.0649 16.7748 27.2512 19.8822 31.2891C20.8125 32.498 21.7363 33.5959 22.5085 34.4765V37.2262C22.5085 37.6535 22.8549 38 23.2824 38H26.7531C27.1806 38 27.527 37.6535 27.527 37.2262V34.4765C28.2992 33.5959 29.223 32.498 30.1533 31.2891C33.2607 27.2512 34.8363 24.0649 34.8363 21.8184ZM33.2887 21.8184C33.2887 23.9687 31.2878 27.2256 29.0968 30.1158H28.125C29.2986 26.5897 29.8932 23.8011 29.8932 21.8184C29.8932 19.2948 29.4422 16.9099 28.6229 15.1034C28.4668 14.7594 28.2998 14.4429 28.123 14.1532C31.1493 15.3835 33.2887 18.3556 33.2887 21.8184ZM25.9793 36.4524H24.0562V34.9571H25.9793V36.4524ZM26.409 33.4095H23.6329C23.1808 32.8929 22.6777 32.3032 22.1551 31.6637H22.9858C22.988 31.6637 22.9902 31.6638 22.9922 31.6638C22.9943 31.6638 27.8804 31.6637 27.8804 31.6637C27.375 32.2851 26.8773 32.8731 26.409 33.4095ZM25.0177 13.5476C25.7806 13.5476 26.5808 14.3476 27.2133 15.7425C27.9435 17.3527 28.3456 19.5105 28.3456 21.8184C28.3456 23.6971 27.7053 26.5597 26.4919 30.1158H23.5438C22.33 26.5593 21.6897 23.6977 21.6897 21.8184C21.6897 19.5105 22.092 17.3527 22.8222 15.7425C23.4547 14.3476 24.2549 13.5476 25.0177 13.5476ZM16.7469 21.8184C16.7469 18.3556 18.8862 15.3835 21.9125 14.1532C21.7357 14.4429 21.5685 14.7594 21.4126 15.1034C20.5933 16.9099 20.1423 19.2948 20.1423 21.8184C20.1423 23.8017 20.7368 26.5899 21.9103 30.1158H20.9337C18.1941 26.5159 16.7469 23.6499 16.7469 21.8184Z" fill="#3554D1"/>
</svg>